<?xml version="1.0" encoding="utf-8"?>
<!-- Generator: Adobe Illustrator 28.1.0, SVG Export Plug-In . SVG Version: 6.00 Build 0)  -->
<svg version="1.1" id="Layer_1_1_" xmlns="http://www.w3.org/2000/svg" xmlns:xlink="http://www.w3.org/1999/xlink" x="0px" y="0px"
	 viewBox="0 0 16 16" style="enable-background:new 0 0 16 16;" xml:space="preserve">
<style type="text/css">
	.st0{fill:#C6076F;}
</style>
<path class="st0" d="M3.5,9h9C14.4,9,16,7.4,16,5.5S14.4,2,12.5,2H4c0-1.1-0.9-2-2-2S0,0.9,0,2s0.9,2,2,2c0.7,0,1.4-0.4,1.7-1h8.8
	C13.9,3,15,4.1,15,5.5S13.9,8,12.5,8h-9C1.6,8,0,9.6,0,11.5S1.6,15,3.5,15h8.8c0.3,0.6,1,1,1.7,1c1.1,0,2-0.9,2-2s-0.9-2-2-2
	s-2,0.9-2,2H3.5C2.1,14,1,12.9,1,11.5S2.1,9,3.5,9z"/>
</svg>
