<?xml version="1.0" encoding="utf-8"?>
<!-- Generator: Adobe Illustrator 28.1.0, SVG Export Plug-In . SVG Version: 6.00 Build 0)  -->
<svg version="1.1" id="Layer_1" xmlns="http://www.w3.org/2000/svg" xmlns:xlink="http://www.w3.org/1999/xlink" x="0px" y="0px"
	 viewBox="0 0 120.5 122.9" style="enable-background:new 0 0 120.5 122.9;" xml:space="preserve">
<style type="text/css">
	.st0{fill-rule:evenodd;clip-rule:evenodd;fill:#C6076F;}
</style>
<path class="st0" d="M17.2,0h62.3C89,0,96.7,7.7,96.7,17.2v38.3c0,9.5-7.7,17.2-17.2,17.2H46.9L20.8,95.2c-1.2,1.1-3,0.9-4.1-0.3
	c-0.5-0.6-0.8-1.4-0.7-2.1l1.4-20.1h-0.2C7.7,72.7,0,65,0,55.5V17.2C0,7.7,7.7,0,17.2,0z M52.6,44.7H41.3v-0.5
	c-0.1-1.6,0.2-3.2,0.7-4.7c0.5-1.2,1.1-2.3,2-3.3c1.8-1.9,3.7-3.6,5.8-5.2c1.6-1.3,2.4-2.5,2.4-3.6c0-1-0.3-1.9-1-2.5
	c-0.8-0.7-1.9-1-2.9-0.9c-1.3,0-2.6,0.5-3.5,1.4c-0.9,0.9-1.5,2.6-1.8,4.9l-11.5-1.5c0.2-3.9,1.9-7.5,4.6-10.3
	c2.7-2.6,6.8-3.9,12.4-3.9c4.3,0,7.8,0.9,10.5,2.7c3.4,2.1,5.5,5.8,5.4,9.8c0,1.7-0.5,3.4-1.4,4.9c-1.6,2.2-3.5,4.2-5.7,5.8
	c-1.5,1-2.8,2.3-3.8,3.8C52.8,42.5,52.6,43.6,52.6,44.7L52.6,44.7z M40.9,48.3H53V57H40.9V48.3z M106.8,28
	c7.9,1.5,13.7,8.5,13.7,16.5v38.3c0,9.3-7.6,16.8-16.8,16.8H103l1.4,20.4c0.1,1.4-1,2.6-2.4,2.7c-0.7,0-1.3-0.2-1.8-0.6L74,99.1
	H39.5l17-17.3h36c7.9,0,14.3-6.4,14.3-14.3V29.1C106.8,28.7,106.8,28.4,106.8,28L106.8,28z M79.5,5.8H17.2
	c-6.3,0-11.4,5.1-11.4,11.4v38.3c0,6.3,5.1,11.4,11.4,11.5h3.5c1.6,0.1,2.8,1.5,2.7,3.1l-1.1,16.2l21.5-18.5c0.5-0.5,1.2-0.8,2-0.8
	h33.7c6.3,0,11.4-5.1,11.4-11.4V17.2C90.9,10.9,85.8,5.8,79.5,5.8z"/>
</svg>
